<svg xmlns="http://www.w3.org/2000/svg" xmlns:xlink="http://www.w3.org/1999/xlink" width="24" height="24" x="0" y="0" enable-background="new -2 0 24 24" overflow="visible" preserveAspectRatio="xMinYMid meet" version="1.1" viewBox="-2 0 24 24" xml:space="preserve"><linearGradient id="SVGID_1_" x1="12.001" x2="12.001" y1="0" y2="24" gradientUnits="userSpaceOnUse"><stop offset="0" stop-color="#90C50E"/><stop offset="1" stop-color="#70A034"/></linearGradient><rect width="16" height="24" x="4" fill="url(#SVGID_1_)"/><linearGradient id="SVGID_2_" x1="12.001" x2="12.001" y1="1" y2="23" gradientUnits="userSpaceOnUse"><stop offset="0" stop-color="#D9F991"/><stop offset=".239" stop-color="#D7F88D"/><stop offset=".45" stop-color="#D1F383"/><stop offset=".651" stop-color="#C6EC71"/><stop offset=".844" stop-color="#B7E257"/><stop offset="1" stop-color="#A8D73D"/></linearGradient><rect width="14" height="22" x="5" y="1" fill="url(#SVGID_2_)"/><linearGradient id="SVGID_3_" x1="12.001" x2="12.001" y1="2" y2="22" gradientUnits="userSpaceOnUse"><stop offset="0" stop-color="#B3E810"/><stop offset="1" stop-color="#90C60D"/></linearGradient><rect width="12" height="20" x="6" y="2" fill="url(#SVGID_3_)"/><linearGradient id="SVGID_4_" x1="12.001" x2="12.001" y1="4" y2="9" gradientUnits="userSpaceOnUse"><stop offset="0" stop-color="#90C50E"/><stop offset="1" stop-color="#70A034"/></linearGradient><path fill="url(#SVGID_4_)" d="M7,4v5h10V4H7z M16,8H8V5h8V8z"/><linearGradient id="SVGID_5_" x1="2.5" x2="2.5" y1="0" y2="24" gradientUnits="userSpaceOnUse"><stop offset="0" stop-color="#656565"/><stop offset=".013" stop-color="#646464"/><stop offset=".445" stop-color="#3C3C3C"/><stop offset=".789" stop-color="#242424"/><stop offset="1" stop-color="#1B1B1B"/></linearGradient><path fill="url(#SVGID_5_)" d="M4,0H2.6H1C0.5,0,0,0.5,0,1v22c0,0.5,0.5,1,1,1h1.6H4h1v-1V1V0H4z"/><linearGradient id="SVGID_6_" x1="2.5" x2="2.5" y1="1" y2="23" gradientUnits="userSpaceOnUse"><stop offset="0" stop-color="#8E8E8E"/><stop offset=".042" stop-color="#8A8A8A"/><stop offset=".461" stop-color="#626262"/><stop offset=".795" stop-color="#4A4A4A"/><stop offset="1" stop-color="#414141"/></linearGradient><rect width="3" height="22" x="1" y="1" fill="url(#SVGID_6_)"/><linearGradient id="SVGID_7_" x1="2.5" x2="2.5" y1="2" y2="22" gradientUnits="userSpaceOnUse"><stop offset="0" stop-color="#7C7C7C"/><stop offset=".39" stop-color="#5C5C5C"/><stop offset=".768" stop-color="#444"/><stop offset="1" stop-color="#3B3B3B"/></linearGradient><rect width="1" height="20" x="2" y="2" fill="url(#SVGID_7_)"/></svg>