<svg xmlns="http://www.w3.org/2000/svg" xmlns:xlink="http://www.w3.org/1999/xlink" width="24" height="24" x="0" y="0" enable-background="new -2 -1 24 24" overflow="visible" preserveAspectRatio="xMinYMid meet" version="1.1" viewBox="-2 -1 24 24" xml:space="preserve"><radialGradient id="SVGID_1_" cx="10" cy="19.5" r="7.492" gradientUnits="userSpaceOnUse"><stop offset="0" stop-color="#76A1F0"/><stop offset="1" stop-color="#6B90D5"/></radialGradient><path fill="url(#SVGID_1_)" d="M20,21c0,1.1-0.9,2-2,2H2c-1.1,0-2-0.9-2-2v-3c0-1.1,0.9-2,2-2h16c1.1,0,2,0.9,2,2V21z"/><radialGradient id="SVGID_2_" cx="10" cy="19.5" r="6.605" gradientUnits="userSpaceOnUse"><stop offset="0" stop-color="#BBE0F7"/><stop offset="1" stop-color="#82B4FB"/></radialGradient><path fill="url(#SVGID_2_)" d="M2,22c-0.6,0-1-0.4-1-1v-3c0-0.6,0.4-1,1-1h16c0.6,0,1,0.4,1,1v3c0,0.6-0.4,1-1,1H2z"/><radialGradient id="SVGID_3_" cx="10" cy="19.5" r="5.755" gradientUnits="userSpaceOnUse"><stop offset="0" stop-color="#95BFF8"/><stop offset=".557" stop-color="#84ADEF"/><stop offset="1" stop-color="#7CA4EB"/></radialGradient><rect width="16" height="3" x="2" y="18" fill="url(#SVGID_3_)"/><radialGradient id="SVGID_4_" cx="10" cy="11.5" r="7.492" gradientUnits="userSpaceOnUse"><stop offset="0" stop-color="#76A1F0"/><stop offset="1" stop-color="#6B90D5"/></radialGradient><path fill="url(#SVGID_4_)" d="M20,13c0,1.1-0.9,2-2,2H2c-1.1,0-2-0.9-2-2v-3c0-1.1,0.9-2,2-2h16c1.1,0,2,0.9,2,2V13z"/><radialGradient id="SVGID_5_" cx="10" cy="11.5" r="6.605" gradientUnits="userSpaceOnUse"><stop offset="0" stop-color="#BBE0F7"/><stop offset="1" stop-color="#82B4FB"/></radialGradient><path fill="url(#SVGID_5_)" d="M2,14c-0.6,0-1-0.4-1-1v-3c0-0.6,0.4-1,1-1h16c0.6,0,1,0.4,1,1v3c0,0.6-0.4,1-1,1H2z"/><radialGradient id="SVGID_6_" cx="10" cy="11.5" r="5.755" gradientUnits="userSpaceOnUse"><stop offset="0" stop-color="#95BFF8"/><stop offset=".557" stop-color="#84ADEF"/><stop offset="1" stop-color="#7CA4EB"/></radialGradient><rect width="16" height="3" x="2" y="10" fill="url(#SVGID_6_)"/><radialGradient id="SVGID_7_" cx="10" cy="3.5" r="7.492" gradientUnits="userSpaceOnUse"><stop offset="0" stop-color="#76A1F0"/><stop offset="1" stop-color="#6B90D5"/></radialGradient><path fill="url(#SVGID_7_)" d="M20,5c0,1.1-0.9,2-2,2H2C0.9,7,0,6.1,0,5V2c0-1.1,0.9-2,2-2h16c1.1,0,2,0.9,2,2V5z"/><radialGradient id="SVGID_8_" cx="10" cy="3.5" r="6.605" gradientUnits="userSpaceOnUse"><stop offset="0" stop-color="#BBE0F7"/><stop offset="1" stop-color="#82B4FB"/></radialGradient><path fill="url(#SVGID_8_)" d="M2,6C1.4,6,1,5.6,1,5V2c0-0.6,0.4-1,1-1h16c0.6,0,1,0.4,1,1v3c0,0.6-0.4,1-1,1H2z"/><radialGradient id="SVGID_9_" cx="10" cy="3.5" r="5.755" gradientUnits="userSpaceOnUse"><stop offset="0" stop-color="#95BFF8"/><stop offset=".557" stop-color="#84ADEF"/><stop offset="1" stop-color="#7CA4EB"/></radialGradient><rect width="16" height="3" x="2" y="2" fill="url(#SVGID_9_)"/></svg>