<svg xmlns="http://www.w3.org/2000/svg" xmlns:xlink="http://www.w3.org/1999/xlink" width="24" height="24" x="0" y="0" enable-background="new 0 -2 24 24" overflow="visible" preserveAspectRatio="xMinYMid meet" version="1.1" viewBox="0 -2 24 24" xml:space="preserve"><linearGradient id="SVGID_1_" x1="18" x2="18" y1="10" y2="20" gradientUnits="userSpaceOnUse"><stop offset="0" stop-color="#F0A829"/><stop offset="1" stop-color="#C7671A"/></linearGradient><rect width="10" height="10" x="13" y="10" fill="url(#SVGID_1_)"/><linearGradient id="SVGID_2_" x1="18" x2="18" y1="11" y2="19" gradientUnits="userSpaceOnUse"><stop offset="0" stop-color="#FFEBA8"/><stop offset="1" stop-color="#F8BE27"/></linearGradient><rect width="8" height="8" x="14" y="11" fill="url(#SVGID_2_)"/><linearGradient id="SVGID_3_" x1="18" x2="18" y1="12" y2="18" gradientUnits="userSpaceOnUse"><stop offset="0" stop-color="#FFC30F"/><stop offset="1" stop-color="#F5AE0D"/></linearGradient><rect width="6" height="6" x="15" y="12" fill="url(#SVGID_3_)"/><linearGradient id="SVGID_4_" x1="18" x2="18" y1="10" y2="14.001" gradientUnits="userSpaceOnUse"><stop offset="0" stop-color="#F0A829"/><stop offset="1" stop-color="#C7671A"/></linearGradient><rect width="12" height="4" x="12" y="10" fill="url(#SVGID_4_)"/><linearGradient id="SVGID_5_" x1="18" x2="18" y1="11" y2="13.001" gradientUnits="userSpaceOnUse"><stop offset="0" stop-color="#FFC30F"/><stop offset="1" stop-color="#F5AE0D"/></linearGradient><rect width="10" height="2" x="13" y="11" fill="url(#SVGID_5_)"/><linearGradient id="SVGID_6_" x1="18" x2="18" y1="10" y2="16.423" gradientUnits="userSpaceOnUse"><stop offset="0" stop-color="#8D470D"/><stop offset="1" stop-color="#7C3D09"/></linearGradient><polygon fill="url(#SVGID_6_)" points="17 10 17 11.7 17 15 17 16.4 18 15.5 19 16.4 19 15 19 11.7 19 10"/><linearGradient id="SVGID_7_" x1="6" x2="6" y1="10" y2="20" gradientUnits="userSpaceOnUse"><stop offset="0" stop-color="#F0A829"/><stop offset="1" stop-color="#C7671A"/></linearGradient><rect width="10" height="10" x="1" y="10" fill="url(#SVGID_7_)"/><linearGradient id="SVGID_8_" x1="6" x2="6" y1="11" y2="19" gradientUnits="userSpaceOnUse"><stop offset="0" stop-color="#FFEBA8"/><stop offset="1" stop-color="#F8BE27"/></linearGradient><rect width="8" height="8" x="2" y="11" fill="url(#SVGID_8_)"/><linearGradient id="SVGID_9_" x1="6" x2="6" y1="12" y2="18" gradientUnits="userSpaceOnUse"><stop offset="0" stop-color="#FFC30F"/><stop offset="1" stop-color="#F5AE0D"/></linearGradient><rect width="6" height="6" x="3" y="12" fill="url(#SVGID_9_)"/><linearGradient id="SVGID_10_" x1="6" x2="6" y1="10" y2="14.001" gradientUnits="userSpaceOnUse"><stop offset="0" stop-color="#F0A829"/><stop offset="1" stop-color="#C7671A"/></linearGradient><rect width="12" height="4" y="10" fill="url(#SVGID_10_)"/><linearGradient id="SVGID_11_" x1="6" x2="6" y1="11" y2="13.001" gradientUnits="userSpaceOnUse"><stop offset="0" stop-color="#FFC30F"/><stop offset="1" stop-color="#F5AE0D"/></linearGradient><rect width="10" height="2" x="1" y="11" fill="url(#SVGID_11_)"/><linearGradient id="SVGID_12_" x1="6" x2="6" y1="10" y2="16.423" gradientUnits="userSpaceOnUse"><stop offset="0" stop-color="#8D470D"/><stop offset="1" stop-color="#7C3D09"/></linearGradient><polygon fill="url(#SVGID_12_)" points="5 10 5 11.7 5 15 5 16.4 6 15.5 7 16.4 7 15 7 11.7 7 10"/><linearGradient id="SVGID_13_" x1="11.999" x2="11.999" y1="0" y2="10" gradientUnits="userSpaceOnUse"><stop offset="0" stop-color="#F0A829"/><stop offset="1" stop-color="#C7671A"/></linearGradient><rect width="10" height="10" x="7" fill="url(#SVGID_13_)"/><linearGradient id="SVGID_14_" x1="11.999" x2="11.999" y1="1" y2="9" gradientUnits="userSpaceOnUse"><stop offset="0" stop-color="#FFEBA8"/><stop offset="1" stop-color="#F8BE27"/></linearGradient><rect width="8" height="8" x="8" y="1" fill="url(#SVGID_14_)"/><linearGradient id="SVGID_15_" x1="11.999" x2="11.999" y1="2" y2="8" gradientUnits="userSpaceOnUse"><stop offset="0" stop-color="#FFC30F"/><stop offset="1" stop-color="#F5AE0D"/></linearGradient><rect width="6" height="6" x="9" y="2" fill="url(#SVGID_15_)"/><linearGradient id="SVGID_16_" x1="11.999" x2="11.999" y1="0" y2="4" gradientUnits="userSpaceOnUse"><stop offset="0" stop-color="#F0A829"/><stop offset="1" stop-color="#C7671A"/></linearGradient><rect width="12" height="4" x="6" fill="url(#SVGID_16_)"/><linearGradient id="SVGID_17_" x1="11.999" x2="11.999" y1="1" y2="3" gradientUnits="userSpaceOnUse"><stop offset="0" stop-color="#FFC30F"/><stop offset="1" stop-color="#F5AE0D"/></linearGradient><rect width="10" height="2" x="7" y="1" fill="url(#SVGID_17_)"/><linearGradient id="SVGID_18_" x1="11.999" x2="11.999" y1="0" y2="6.423" gradientUnits="userSpaceOnUse"><stop offset="0" stop-color="#8D470D"/><stop offset="1" stop-color="#7C3D09"/></linearGradient><polygon fill="url(#SVGID_18_)" points="11 0 11 1.7 11 5 11 6.4 12 5.5 13 6.4 13 5 13 1.7 13 0"/></svg>