<svg xmlns="http://www.w3.org/2000/svg" xmlns:xlink="http://www.w3.org/1999/xlink" width="24" height="24" x="0" y="0" enable-background="new 0 0 24 24" overflow="visible" preserveAspectRatio="xMinYMid meet" version="1.1" viewBox="0 0 24 24" xml:space="preserve"><linearGradient id="SVGID_1_" x1="5.5" x2="5.5" y1="10" y2="14.001" gradientUnits="userSpaceOnUse"><stop offset="0" stop-color="#95BFF8"/><stop offset=".557" stop-color="#84ADEF"/><stop offset="1" stop-color="#7CA4EB"/></linearGradient><rect width="1" height="4" x="5" y="10" fill="url(#SVGID_1_)"/><linearGradient id="SVGID_2_" x1="15" x2="15" y1="5" y2="9" gradientUnits="userSpaceOnUse"><stop offset="0" stop-color="#95BFF8"/><stop offset=".557" stop-color="#84ADEF"/><stop offset="1" stop-color="#7CA4EB"/></linearGradient><polygon fill="url(#SVGID_2_)" points="18 5 11 5 11 6 18 6 18 9 19 9 19 6 19 5"/><linearGradient id="SVGID_3_" x1="5.5" x2="5.5" y1="14" y2="24" gradientUnits="userSpaceOnUse"><stop offset="0" stop-color="#76A1F0"/><stop offset="1" stop-color="#6B90D5"/></linearGradient><path fill="url(#SVGID_3_)" d="M10,14H1c-0.6,0-1,0.4-1,1v1v7v1h1h9h1v-1v-7v-1C11,14.4,10.6,14,10,14z"/><linearGradient id="SVGID_4_" x1="5.5" x2="5.5" y1="17" y2="23" gradientUnits="userSpaceOnUse"><stop offset="0" stop-color="#E7F4FC"/><stop offset="1" stop-color="#DEEFFC"/></linearGradient><rect width="9" height="6" x="1" y="17" fill="url(#SVGID_4_)"/><linearGradient id="SVGID_5_" x1="5.5" x2="5.5" y1="18" y2="22" gradientUnits="userSpaceOnUse"><stop offset="0" stop-color="#CEE9F9"/><stop offset="1" stop-color="#BBDFF8"/></linearGradient><rect width="7" height="4" x="2" y="18" fill="url(#SVGID_5_)"/><linearGradient id="SVGID_6_" x1="5.5" x2="5.5" y1="15" y2="16" gradientUnits="userSpaceOnUse"><stop offset="0" stop-color="#BBE0F7"/><stop offset="1" stop-color="#82B4FB"/></linearGradient><rect width="9" height="1" x="1" y="15" fill="url(#SVGID_6_)"/><linearGradient id="SVGID_7_" x1="18.5" x2="18.5" y1="9" y2="19" gradientUnits="userSpaceOnUse"><stop offset="0" stop-color="#76A1F0"/><stop offset="1" stop-color="#6B90D5"/></linearGradient><path fill="url(#SVGID_7_)" d="M23,9h-9c-0.6,0-1,0.4-1,1v1v7v1h1h9h1v-1v-7v-1C24,9.4,23.6,9,23,9z"/><linearGradient id="SVGID_8_" x1="18.5" x2="18.5" y1="12" y2="18" gradientUnits="userSpaceOnUse"><stop offset="0" stop-color="#E7F4FC"/><stop offset="1" stop-color="#DEEFFC"/></linearGradient><rect width="9" height="6" x="14" y="12" fill="url(#SVGID_8_)"/><linearGradient id="SVGID_9_" x1="18.5" x2="18.5" y1="13" y2="17" gradientUnits="userSpaceOnUse"><stop offset="0" stop-color="#CEE9F9"/><stop offset="1" stop-color="#BBDFF8"/></linearGradient><rect width="7" height="4" x="15" y="13" fill="url(#SVGID_9_)"/><linearGradient id="SVGID_10_" x1="18.5" x2="18.5" y1="10" y2="11" gradientUnits="userSpaceOnUse"><stop offset="0" stop-color="#BBE0F7"/><stop offset="1" stop-color="#82B4FB"/></linearGradient><rect width="9" height="1" x="14" y="10" fill="url(#SVGID_10_)"/><linearGradient id="SVGID_11_" x1="5.5" x2="5.5" y1="0" y2="10" gradientUnits="userSpaceOnUse"><stop offset="0" stop-color="#76A1F0"/><stop offset="1" stop-color="#6B90D5"/></linearGradient><path fill="url(#SVGID_11_)" d="M10,0H1C0.4,0,0,0.4,0,1v1v7v1h1h9h1V9V2V1C11,0.4,10.6,0,10,0z"/><linearGradient id="SVGID_12_" x1="5.5" x2="5.5" y1="3" y2="9" gradientUnits="userSpaceOnUse"><stop offset="0" stop-color="#E7F4FC"/><stop offset="1" stop-color="#DEEFFC"/></linearGradient><rect width="9" height="6" x="1" y="3" fill="url(#SVGID_12_)"/><linearGradient id="SVGID_13_" x1="5.5" x2="5.5" y1="4" y2="8" gradientUnits="userSpaceOnUse"><stop offset="0" stop-color="#CEE9F9"/><stop offset="1" stop-color="#BBDFF8"/></linearGradient><rect width="7" height="4" x="2" y="4" fill="url(#SVGID_13_)"/><linearGradient id="SVGID_14_" x1="5.5" x2="5.5" y1="1" y2="2" gradientUnits="userSpaceOnUse"><stop offset="0" stop-color="#BBE0F7"/><stop offset="1" stop-color="#82B4FB"/></linearGradient><rect width="9" height="1" x="1" y="1" fill="url(#SVGID_14_)"/></svg>