<svg xmlns="http://www.w3.org/2000/svg" xmlns:xlink="http://www.w3.org/1999/xlink" width="24" height="24" x="0" y="0" enable-background="new 0 -2 24 24" overflow="visible" preserveAspectRatio="xMinYMid meet" version="1.1" viewBox="0 -2 24 24" xml:space="preserve"><linearGradient id="SVGID_1_" x1="11.999" x2="11.999" y1="0" y2="20" gradientUnits="userSpaceOnUse"><stop offset="0" stop-color="#F0A829"/><stop offset="1" stop-color="#C7671A"/></linearGradient><rect width="22" height="20" x="1" fill="url(#SVGID_1_)"/><linearGradient id="SVGID_2_" x1="11.999" x2="11.999" y1="1" y2="19" gradientUnits="userSpaceOnUse"><stop offset="0" stop-color="#FFEBA8"/><stop offset="1" stop-color="#F8BE27"/></linearGradient><rect width="20" height="18" x="2" y="1" fill="url(#SVGID_2_)"/><linearGradient id="SVGID_3_" x1="11.999" x2="11.999" y1="2" y2="18" gradientUnits="userSpaceOnUse"><stop offset="0" stop-color="#FFC30F"/><stop offset="1" stop-color="#F5AE0D"/></linearGradient><rect width="18" height="16" x="3" y="2" fill="url(#SVGID_3_)"/><linearGradient id="SVGID_4_" x1="11.999" x2="11.999" y1="0" y2="7" gradientUnits="userSpaceOnUse"><stop offset="0" stop-color="#F0A829"/><stop offset="1" stop-color="#C7671A"/></linearGradient><rect width="24" height="7" fill="url(#SVGID_4_)"/><linearGradient id="SVGID_5_" x1="11.999" x2="11.999" y1="1" y2="6" gradientUnits="userSpaceOnUse"><stop offset="0" stop-color="#FFEBA8"/><stop offset="1" stop-color="#F8BE27"/></linearGradient><rect width="22" height="5" x="1" y="1" fill="url(#SVGID_5_)"/><linearGradient id="SVGID_6_" x1="11.999" x2="11.999" y1="2" y2="5" gradientUnits="userSpaceOnUse"><stop offset="0" stop-color="#FFC30F"/><stop offset="1" stop-color="#F5AE0D"/></linearGradient><rect width="20" height="3" x="2" y="2" fill="url(#SVGID_6_)"/><linearGradient id="SVGID_7_" x1="11.499" x2="11.499" y1="0" y2="13.001" gradientUnits="userSpaceOnUse"><stop offset="0" stop-color="#8D470D"/><stop offset="1" stop-color="#7C3D09"/></linearGradient><polygon fill="url(#SVGID_7_)" points="9 0 9 3 9 10 9 13 11.5 11 14 13 14 10 14 3 14 0"/><linearGradient id="SVGID_8_" x1="11.499" x2="11.499" y1="1" y2="10.935" gradientUnits="userSpaceOnUse"><stop offset="0" stop-color="#D58738"/><stop offset="1" stop-color="#AB551F"/></linearGradient><polygon fill="url(#SVGID_8_)" points="10 1 10 4 10 7.9 10 10.9 11.5 9.7 13 10.9 13 7.9 13 4 13 1"/><linearGradient id="SVGID_9_" x1="11.5" x2="11.5" y1="2" y2="8.871" gradientUnits="userSpaceOnUse"><stop offset="0" stop-color="#D0813A"/><stop offset="1" stop-color="#AF551D"/></linearGradient><polygon fill="url(#SVGID_9_)" points="11 2 11 5 11 5.8 11 8.8 11.5 8.4 12 8.9 12 5.9 12 5 12 2"/></svg>