<svg xmlns="http://www.w3.org/2000/svg" xmlns:xlink="http://www.w3.org/1999/xlink" width="24" height="24" x="0" y="0" enable-background="new 0 0 24 24" overflow="visible" preserveAspectRatio="xMinYMid meet" version="1.1" viewBox="0 0 24 24" xml:space="preserve"><linearGradient id="SVGID_1_" x1="20" x2="20" y1="8" y2="24" gradientUnits="userSpaceOnUse"><stop offset="0" stop-color="#76A1F0"/><stop offset="1" stop-color="#6B90D5"/></linearGradient><rect width="8" height="16" x="16" y="8" fill="url(#SVGID_1_)"/><linearGradient id="SVGID_2_" x1="20" x2="20" y1="9" y2="23" gradientUnits="userSpaceOnUse"><stop offset="0" stop-color="#BBE0F7"/><stop offset="1" stop-color="#82B4FB"/></linearGradient><rect width="6" height="14" x="17" y="9" fill="url(#SVGID_2_)"/><linearGradient id="SVGID_3_" x1="20" x2="20" y1="10" y2="22" gradientUnits="userSpaceOnUse"><stop offset="0" stop-color="#95BFF8"/><stop offset=".557" stop-color="#84ADEF"/><stop offset="1" stop-color="#7CA4EB"/></linearGradient><rect width="4" height="12" x="18" y="10" fill="url(#SVGID_3_)"/><linearGradient id="SVGID_4_" x1="11.999" x2="11.999" y1="0" y2="24" gradientUnits="userSpaceOnUse"><stop offset="0" stop-color="#90C50E"/><stop offset="1" stop-color="#70A034"/></linearGradient><rect width="8" height="24" x="8" fill="url(#SVGID_4_)"/><linearGradient id="SVGID_5_" x1="11.999" x2="11.999" y1="1" y2="23" gradientUnits="userSpaceOnUse"><stop offset="0" stop-color="#D9F991"/><stop offset=".239" stop-color="#D7F88D"/><stop offset=".45" stop-color="#D1F383"/><stop offset=".651" stop-color="#C6EC71"/><stop offset=".844" stop-color="#B7E257"/><stop offset="1" stop-color="#A8D73D"/></linearGradient><rect width="6" height="22" x="9" y="1" fill="url(#SVGID_5_)"/><linearGradient id="SVGID_6_" x1="11.999" x2="11.999" y1="2" y2="22" gradientUnits="userSpaceOnUse"><stop offset="0" stop-color="#B3E810"/><stop offset="1" stop-color="#90C60D"/></linearGradient><rect width="4" height="20" x="10" y="2" fill="url(#SVGID_6_)"/><linearGradient id="SVGID_7_" x1="4" x2="4" y1="12" y2="24" gradientUnits="userSpaceOnUse"><stop offset="0" stop-color="#F0A829"/><stop offset="1" stop-color="#C7671A"/></linearGradient><rect width="8" height="12" y="12" fill="url(#SVGID_7_)"/><linearGradient id="SVGID_8_" x1="4" x2="4" y1="13" y2="23" gradientUnits="userSpaceOnUse"><stop offset="0" stop-color="#FFEBA8"/><stop offset="1" stop-color="#F8BE27"/></linearGradient><rect width="6" height="10" x="1" y="13" fill="url(#SVGID_8_)"/><linearGradient id="SVGID_9_" x1="4" x2="4" y1="14" y2="22" gradientUnits="userSpaceOnUse"><stop offset="0" stop-color="#FFC30F"/><stop offset="1" stop-color="#F5AE0D"/></linearGradient><rect width="4" height="8" x="2" y="14" fill="url(#SVGID_9_)"/></svg>